<svg width="96" height="96" viewBox="0 0 96 96" fill="none" xmlns="http://www.w3.org/2000/svg">
<g clip-path="url(#clip0_86_14)">
<path d="M40.7288 73.96L3.93681 56.068V46.576L40.7288 28.684V37.168L15.6128 49.18C14.4928 49.684 13.4288 50.132 12.4208 50.524C11.4128 50.86 10.6568 51.084 10.1528 51.196C10.7128 51.308 11.4968 51.532 12.5048 51.868C13.5688 52.204 14.6048 52.624 15.6128 53.128L40.7288 65.224V73.96ZM71.944 79.84C68.08 79.84 64.72 79.112 61.864 77.656C59.008 76.2 56.796 74.156 55.228 71.524C53.716 68.836 52.96 65.728 52.96 62.2H62.032C62.032 65.28 62.9 67.688 64.636 69.424C66.428 71.16 68.892 72.028 72.028 72.028C75.22 72.028 77.684 71.132 79.42 69.34C81.156 67.548 82.024 65.168 82.024 62.2V57.664C82.024 54.528 81.156 52.12 79.42 50.44C77.684 48.704 75.22 47.836 72.028 47.836H65.476V39.268L79.756 25.66H55.564V17.68H88.996V26.248L72.112 42.124V39.94C77.936 39.94 82.556 41.536 85.972 44.728C89.388 47.92 91.096 52.204 91.096 57.58V62.2C91.096 65.728 90.312 68.836 88.744 71.524C87.176 74.156 84.936 76.2 82.024 77.656C79.168 79.112 75.808 79.84 71.944 79.84Z" fill="#B2004A"/>
</g>
<defs>
<clipPath id="clip0_86_14">
<rect width="96" height="96" fill="white"/>
</clipPath>
</defs>
</svg>
